<svg width="35" height="35" viewBox="0 0 35 35" fill="none" xmlns="http://www.w3.org/2000/svg">
<rect width="35" height="35" rx="10" fill="black"/>
<path d="M21.91 20.03C21.91 20.84 21.61 21.53 21.01 22.1C20.42 22.66 19.56 23 18.43 23.12V24.8H17.2V23.135C16.46 23.085 15.76 22.95 15.1 22.73C14.44 22.51 13.915 22.23 13.525 21.89L14.2 20.375C14.57 20.675 15.02 20.93 15.55 21.14C16.08 21.34 16.63 21.465 17.2 21.515V18.515C16.49 18.345 15.895 18.16 15.415 17.96C14.945 17.75 14.55 17.45 14.23 17.06C13.91 16.66 13.75 16.135 13.75 15.485C13.75 14.675 14.045 13.985 14.635 13.415C15.225 12.845 16.08 12.505 17.2 12.395V10.7H18.43V12.365C18.99 12.395 19.535 12.49 20.065 12.65C20.605 12.81 21.075 13.02 21.475 13.28L20.86 14.795C20.1 14.355 19.29 14.085 18.43 13.985V17.015C19.15 17.185 19.745 17.37 20.215 17.57C20.695 17.77 21.095 18.07 21.415 18.47C21.745 18.86 21.91 19.38 21.91 20.03ZM15.685 15.395C15.685 15.725 15.815 15.99 16.075 16.19C16.335 16.39 16.71 16.56 17.2 16.7V14.03C16.69 14.11 16.31 14.27 16.06 14.51C15.81 14.75 15.685 15.045 15.685 15.395ZM18.43 21.485C18.96 21.405 19.35 21.25 19.6 21.02C19.86 20.79 19.99 20.505 19.99 20.165C19.99 19.825 19.855 19.555 19.585 19.355C19.315 19.145 18.93 18.97 18.43 18.83V21.485Z" fill="white"/>
</svg>
