<svg width="123" height="28" viewBox="0 0 123 28" fill="none" xmlns="http://www.w3.org/2000/svg">
<path d="M14 0C11.2311 0 8.52431 0.821086 6.22202 2.35943C3.91973 3.89777 2.12532 6.08427 1.06569 8.64243C0.00606596 11.2006 -0.271181 14.0155 0.269012 16.7313C0.809205 19.447 2.14258 21.9416 4.10051 23.8995C6.05845 25.8574 8.55301 27.1908 11.2687 27.731C13.9845 28.2712 16.7994 27.9939 19.3576 26.9343C21.9157 25.8747 24.1022 24.0803 25.6406 21.778C27.1789 19.4757 28 16.7689 28 14C28 10.287 26.525 6.72601 23.8995 4.1005C21.274 1.475 17.713 0 14 0ZM13.91 10.45C13.6872 10.45 13.4736 10.5385 13.316 10.696C13.1585 10.8536 13.07 11.0672 13.07 11.29V16.43C13.07 17.3715 12.696 18.2745 12.0302 18.9402C11.3645 19.606 10.4615 19.98 9.52001 19.98C8.57849 19.98 7.67553 19.606 7.00978 18.9402C6.34402 18.2745 5.97001 17.3715 5.97001 16.43V14.09H8.68001V16.33C8.68001 16.5528 8.76851 16.7664 8.92604 16.924C9.08357 17.0815 9.29722 17.17 9.52001 17.17C9.74279 17.17 9.95645 17.0815 10.114 16.924C10.2715 16.7664 10.36 16.5528 10.36 16.33V11.33C10.4082 10.4224 10.8027 9.56781 11.4623 8.94239C12.1218 8.31697 12.9961 7.96835 13.905 7.96835C14.8139 7.96835 15.6882 8.31697 16.3477 8.94239C17.0073 9.56781 17.4018 10.4224 17.45 11.33V12.33L15.87 12.84L14.75 12.33V11.33C14.754 11.2167 14.7353 11.1038 14.695 10.9978C14.6547 10.8919 14.5937 10.795 14.5154 10.713C14.4371 10.631 14.3432 10.5655 14.2393 10.5204C14.1353 10.4752 14.0234 10.4513 13.91 10.45ZM21.84 16.45C21.7918 17.3576 21.3973 18.2122 20.7377 18.8376C20.0782 19.463 19.2039 19.8117 18.295 19.8117C17.3861 19.8117 16.5118 19.463 15.8523 18.8376C15.1927 18.2122 14.7982 17.3576 14.75 16.45V14.14L15.87 14.65L17.45 14.14V16.43C17.45 16.6528 17.5385 16.8664 17.696 17.024C17.8536 17.1815 18.0672 17.27 18.29 17.27C18.5128 17.27 18.7264 17.1815 18.884 17.024C19.0415 16.8664 19.13 16.6528 19.13 16.43V14.19H21.84V16.45Z" fill="url(#paint0_linear_401_5)"/>
<path d="M54.48 8C54.7333 8 54.94 8.06667 55.1 8.2C55.26 8.32 55.34 8.51333 55.34 8.78V9.56C55.34 9.82667 55.26 10.0267 55.1 10.16C54.94 10.28 54.7333 10.34 54.48 10.34H54.1L51.1 21.38C51.0467 21.5667 50.94 21.72 50.78 21.84C50.62 21.9467 50.4333 22 50.22 22H48.94C48.7267 22 48.5333 21.9467 48.36 21.84C48.2 21.72 48.0933 21.5667 48.04 21.38L45.52 13.7L43.02 21.38C42.9533 21.5667 42.8333 21.72 42.66 21.84C42.5 21.9467 42.3133 22 42.1 22H40.8C40.6 22 40.4133 21.9467 40.24 21.84C40.08 21.72 39.9733 21.5667 39.92 21.38L36.92 10.34H36.54C36.2867 10.34 36.08 10.28 35.92 10.16C35.76 10.0267 35.68 9.82667 35.68 9.56V8.78C35.68 8.51333 35.76 8.32 35.92 8.2C36.08 8.06667 36.2867 8 36.54 8H40.12C40.6933 8 40.98 8.26 40.98 8.78V9.56C40.98 10.08 40.6933 10.34 40.12 10.34H39.76L41.8 18.02L44.2 10.66C44.2667 10.46 44.3667 10.3067 44.5 10.2C44.6467 10.08 44.82 10.02 45.02 10.02H46.5C46.6867 10.02 46.8533 10.08 47 10.2C47.1467 10.3067 47.2533 10.46 47.32 10.66L49.7 17.94L51.7 10.34H51.34C50.7667 10.34 50.48 10.08 50.48 9.56V8.78C50.48 8.26 50.7667 8 51.34 8H54.48ZM62.9156 8C64.6356 8 65.9356 8.35333 66.8156 9.06C67.6956 9.76667 68.1356 10.8067 68.1356 12.18C68.1356 13.0867 67.909 13.8867 67.4556 14.58C67.0023 15.26 66.3556 15.7867 65.5156 16.16C64.689 16.52 63.729 16.7 62.6356 16.7H61.1356V19.66H61.4956C62.069 19.66 62.3556 19.92 62.3556 20.44V21.22C62.3556 21.74 62.069 22 61.4956 22H57.9756C57.709 22 57.4956 21.94 57.3356 21.82C57.1756 21.6867 57.0956 21.4867 57.0956 21.22V20.44C57.0956 20.1733 57.1756 19.98 57.3356 19.86C57.4956 19.7267 57.709 19.66 57.9756 19.66H58.3356V10.34H57.9756C57.709 10.34 57.4956 10.28 57.3356 10.16C57.1756 10.0267 57.0956 9.82667 57.0956 9.56V8.78C57.0956 8.51333 57.1756 8.32 57.3356 8.2C57.4956 8.06667 57.7023 8 57.9556 8H62.9156ZM62.5356 14.36C63.4823 14.36 64.1756 14.1933 64.6156 13.86C65.0556 13.5133 65.2756 12.9733 65.2756 12.24C65.2756 11.5867 65.0756 11.1067 64.6756 10.8C64.2756 10.4933 63.6556 10.34 62.8156 10.34H61.1356V14.36H62.5356ZM78.6519 19.66C78.9052 19.66 79.1119 19.7267 79.2719 19.86C79.4319 19.98 79.5119 20.1733 79.5119 20.44V21.22C79.5119 21.4867 79.4319 21.6867 79.2719 21.82C79.1119 21.94 78.9052 22 78.6519 22H76.4319C76.1785 22 75.9585 21.9133 75.7719 21.74C75.5985 21.5533 75.5119 21.3333 75.5119 21.08V20.12C75.2452 20.7333 74.8385 21.2333 74.2919 21.62C73.7585 22.0067 73.1852 22.2 72.5719 22.2C71.6519 22.2 70.9052 21.9267 70.3319 21.38C69.7719 20.8333 69.4919 20.1133 69.4919 19.22C69.4919 18.2067 69.8185 17.46 70.4719 16.98C71.1252 16.4867 72.1119 16.24 73.4319 16.24C74.0452 16.24 74.7385 16.3133 75.5119 16.46V15.72C75.5119 15.1467 75.3585 14.7067 75.0519 14.4C74.7585 14.0933 74.3319 13.94 73.7719 13.94C73.4119 13.94 73.1452 14 72.9719 14.12C72.9452 14.5333 72.7919 14.88 72.5119 15.16C72.2319 15.4267 71.8852 15.56 71.4719 15.56C71.0185 15.56 70.6519 15.4267 70.3719 15.16C70.0919 14.88 69.9519 14.52 69.9519 14.08C69.9519 13.3867 70.3052 12.8333 71.0119 12.42C71.7185 12.0067 72.6385 11.8 73.7719 11.8C75.2519 11.8 76.3719 12.18 77.1319 12.94C77.8919 13.6867 78.2719 14.74 78.2719 16.1V19.66H78.6519ZM73.4119 20.16C73.9452 20.16 74.4119 19.94 74.8119 19.5C75.2252 19.0467 75.4585 18.5067 75.5119 17.88C75.0719 17.8 74.5185 17.76 73.8519 17.76C73.2919 17.76 72.8852 17.8667 72.6319 18.08C72.3785 18.28 72.2519 18.6067 72.2519 19.06C72.2519 19.3933 72.3585 19.66 72.5719 19.86C72.7852 20.06 73.0652 20.16 73.4119 20.16ZM90.4308 12C90.6841 12 90.8908 12.0667 91.0508 12.2C91.2108 12.32 91.2908 12.5133 91.2908 12.78V13.56C91.2908 13.8267 91.2108 14.0267 91.0508 14.16C90.8908 14.28 90.6841 14.34 90.4308 14.34H90.0508L86.2508 22.94C85.8108 23.94 85.3974 24.7133 85.0108 25.26C84.6241 25.8067 84.2174 26.2 83.7908 26.44C83.3774 26.68 82.8908 26.8 82.3308 26.8C81.6774 26.8 81.1374 26.6267 80.7108 26.28C80.2841 25.9333 80.0708 25.4933 80.0708 24.96C80.0708 24.5333 80.2108 24.1867 80.4908 23.92C80.7708 23.6533 81.1374 23.52 81.5908 23.52C81.9108 23.52 82.1908 23.6 82.4308 23.76C82.6841 23.92 82.8641 24.14 82.9708 24.42C83.1974 24.1667 83.4841 23.6467 83.8308 22.86L84.3908 21.58L81.1508 14.34H80.7908C80.2174 14.34 79.9308 14.08 79.9308 13.56V12.78C79.9308 12.26 80.2174 12 80.7908 12H84.0108C84.5841 12 84.8708 12.26 84.8708 12.78V13.56C84.8708 13.8133 84.7974 14.0067 84.6508 14.14C84.5174 14.26 84.3374 14.3267 84.1108 14.34L85.8308 18.46L87.5508 14.34H87.4508C87.1841 14.34 86.9708 14.28 86.8108 14.16C86.6508 14.0267 86.5708 13.8267 86.5708 13.56V12.78C86.5708 12.5133 86.6508 12.32 86.8108 12.2C86.9708 12.0667 87.1841 12 87.4508 12H90.4308ZM109.38 19.66C109.647 19.66 109.86 19.7267 110.02 19.86C110.18 19.98 110.26 20.1733 110.26 20.44V21.22C110.26 21.4867 110.18 21.6867 110.02 21.82C109.86 21.94 109.647 22 109.38 22H106.02C105.447 22 105.16 21.74 105.16 21.22V20.44C105.16 19.92 105.447 19.66 106.02 19.66H106.26V16.68C106.26 15.7067 106.16 15.0333 105.96 14.66C105.773 14.2867 105.427 14.1 104.92 14.1C104.547 14.1 104.193 14.22 103.86 14.46C103.527 14.7 103.26 15.0267 103.06 15.44C102.873 15.84 102.78 16.2667 102.78 16.72V19.66H103.02C103.273 19.66 103.48 19.7267 103.64 19.86C103.8 19.98 103.88 20.1733 103.88 20.44V21.22C103.88 21.4867 103.8 21.6867 103.64 21.82C103.48 21.94 103.273 22 103.02 22H99.7802C99.2068 22 98.9202 21.74 98.9202 21.22V20.44C98.9202 19.92 99.2068 19.66 99.7802 19.66H100.02V16.68C100.02 15.7067 99.9202 15.0333 99.7202 14.66C99.5335 14.2867 99.1868 14.1 98.6802 14.1C98.3068 14.1 97.9535 14.22 97.6202 14.46C97.2868 14.7 97.0202 15.0267 96.8202 15.44C96.6335 15.84 96.5402 16.2667 96.5402 16.72V19.66H96.7802C97.0335 19.66 97.2402 19.7267 97.4002 19.86C97.5602 19.98 97.6402 20.1733 97.6402 20.44V21.22C97.6402 21.4867 97.5602 21.6867 97.4002 21.82C97.2402 21.94 97.0335 22 96.7802 22H93.4002C93.1468 22 92.9402 21.94 92.7802 21.82C92.6202 21.6867 92.5402 21.4867 92.5402 21.22V20.44C92.5402 20.1733 92.6202 19.98 92.7802 19.86C92.9402 19.7267 93.1468 19.66 93.4002 19.66H93.7802V14.34H93.4002C93.1468 14.34 92.9402 14.28 92.7802 14.16C92.6202 14.0267 92.5402 13.8267 92.5402 13.56V12.78C92.5402 12.26 92.8268 12 93.4002 12H95.6202C95.8868 12 96.1068 12.0867 96.2802 12.26C96.4535 12.4333 96.5402 12.6533 96.5402 12.92V14C96.8068 13.3467 97.2068 12.82 97.7402 12.42C98.2735 12.0067 98.8468 11.8 99.4602 11.8C100.273 11.8 100.94 12 101.46 12.4C101.98 12.8 102.347 13.38 102.56 14.14C102.947 13.3933 103.413 12.82 103.96 12.42C104.52 12.0067 105.1 11.8 105.7 11.8C106.78 11.8 107.6 12.1533 108.16 12.86C108.733 13.5533 109.02 14.5667 109.02 15.9V19.66H109.38ZM120.942 16.5C120.942 16.7 120.922 17.06 120.882 17.58H114.462C114.568 18.3 114.822 18.8667 115.222 19.28C115.622 19.6933 116.148 19.9 116.802 19.9C117.228 19.9 117.568 19.84 117.822 19.72C118.088 19.5867 118.348 19.3733 118.602 19.08C118.868 18.7867 119.155 18.64 119.462 18.64C119.755 18.64 120.008 18.7267 120.222 18.9C120.435 19.0733 120.542 19.3067 120.542 19.6C120.542 19.92 120.428 20.24 120.202 20.56C119.842 21.0533 119.368 21.4533 118.782 21.76C118.208 22.0533 117.508 22.2 116.682 22.2C115.642 22.2 114.735 21.98 113.962 21.54C113.202 21.1 112.615 20.4867 112.202 19.7C111.802 18.9 111.602 17.98 111.602 16.94C111.602 15.8867 111.802 14.9733 112.202 14.2C112.615 13.4267 113.188 12.8333 113.922 12.42C114.668 12.0067 115.528 11.8 116.502 11.8C117.328 11.8 118.075 11.98 118.742 12.34C119.408 12.6867 119.942 13.2133 120.342 13.92C120.742 14.6267 120.942 15.4867 120.942 16.5ZM116.442 13.9C115.348 13.9 114.702 14.5533 114.502 15.86H118.122V15.64C118.122 15.0667 117.968 14.6333 117.662 14.34C117.368 14.0467 116.962 13.9 116.442 13.9Z" fill="black"/>
<defs>
<linearGradient id="paint0_linear_401_5" x1="2" y1="6" x2="25" y2="23.5" gradientUnits="userSpaceOnUse">
<stop stop-color="#3300FF"/>
<stop offset="1" stop-color="#FF007A"/>
</linearGradient>
</defs>
</svg>
