<svg width="30" height="25" viewBox="0 0 30 25" fill="none" xmlns="http://www.w3.org/2000/svg">
<rect width="30" height="25" rx="8" fill="white"/>
<rect x="0.5" y="0.5" width="29" height="24" rx="7.5" stroke="black" stroke-opacity="0.5"/>
<path d="M18.9153 5L23 9.09294L21.8224 10.2541L17.7459 6.17765L18.9153 5ZM9 18.4071L14.3529 13.0788C14.2706 12.8235 14.3282 12.5024 14.5424 12.2882C14.8635 11.9671 15.3906 11.9671 15.7118 12.2882C16.0329 12.6176 16.0329 13.1365 15.7118 13.4576C15.4976 13.6718 15.1765 13.7294 14.9212 13.6471L9.59294 19L18.3306 16.0765L21.2376 10.8388L17.1694 6.76235L11.9235 9.66941L9 18.4071Z" fill="black"/>
</svg>
