<svg width="11" height="11" viewBox="0 0 11 11" fill="none" xmlns="http://www.w3.org/2000/svg">
<path d="M10.08 1.55H7.725C8.035 1.83 8.275 2.175 8.445 2.585H10.08V3.635H8.67C8.68 3.705 8.685 3.805 8.685 3.935C8.685 4.725 8.48 5.395 8.07 5.945C7.67 6.485 7.1 6.89 6.36 7.16L8.88 11H6.78L4.485 7.49H4.23H1.41V5.84H4.11C5 5.84 5.655 5.66 6.075 5.3C6.505 4.94 6.72 4.455 6.72 3.845V3.635H0.525V2.585H6.405C6.195 2.245 5.885 1.985 5.475 1.805C5.075 1.625 4.575 1.54 3.975 1.55H0.525V0.499999H10.08V1.55Z" fill="black"/>
</svg>
